{"title":"Tsuki ga Kirei Season 1 (EngDub) 720p x264 Download","magnet":"magnet:?xt=urn:btih:229bafb0b43cb818108b5b03b358e4584e93f715&dn=Tsuki+ga+Kirei+Season+1+%28EngDub%29+720p+x264+Download&tr=udp%3A%2F%2Ftracker.leechers-paradise.org%3A6969&tr=udp%3A%2F%2Fzer0day.ch%3A1337&tr=udp%3A%2F%2Fopen.demonii.com%3A1337&tr=udp%3A%2F%2Ftracker.coppersurfer.tk%3A6969&tr=udp%3A%2F%2Fexodus.desync.com%3A6969","uploader":"digimaza","categoryP":"video","categoryS":"hd___tv_shows","size":"1217149634","seeders":"4","leechers":"4","description":"Tsuki ga Kirei Season 1 Complete (EngDub) 720p x264 Download \r\nKotarou Azumi and Akane Mizuno became third year students at junior high school and are classmates for the first time. These two, along with fellow classmates, Chinatsu Nishio and Takumi Hira, relate to their peers through mutual understandings and feelings. As their final year at junior high school progresses, the group overcome their challenges to mature and become aware of changes in themselves.\r\n..::File Specs::.. \r\n\r\nGeneral \r\n\r\nFormat : Matroska \r\nFormat version : Version 4 / Version 2 \r\nDuration : 24 min 26 s \r\nOverall bit rate : 615 kb/s \r\n\r\nVideo \r\nID : 1 \r\nFormat : AVC \r\nFormat/Info : Advanced Video Codec \r\nFormat profile : <a href=\"/cdn-cgi/l/email-protection\" class=\"__cf_email__\" data-cfemail=\"4c04252b240c0078627d\">[email&#xA0;protected]</a> \r\nFormat settings, CABAC : Yes \r\nFormat settings, RefFrames : 6 frames \r\nCodec ID : V_MPEG4/ISO/AVC \r\nDuration : 24 min 26 s \r\nBit rate : 483 kb/s \r\nWidth : 1 280 pixels \r\nHeight : 720 pixels \r\nDisplay aspect ratio : 16:9 \r\nFrame rate mode : Constant \r\nFrame rate : 23.976 (24000/1001) FPS \r\nColor space : YUV \r\nChroma subsampling : 4:2:0 \r\nBit depth : 8 bits \r\nScan type : Progressive \r\nBits/(Pixel*Frame) : 0.022 \r\nStream size : 84.6 MiB (79%) \r\nWriting library : x264 core 148 r2708 86b7198 \r\nDefault : Yes \r\nForced : No \r\nColor range : Limited \r\n\r\nAudio \r\nID : 2 \r\nFormat : AAC \r\nFormat/Info : Advanced Audio Codec \r\nFormat profile : LC \r\nCodec ID : A_AAC \r\nDuration : 24 min 26 s \r\nBit rate : 129 kb/s \r\nChannel(s) : 2 channels \r\nChannel positions : Front: L R \r\nSampling rate : 48.0 kHz \r\nFrame rate : 46.875 FPS (1024 SPF) \r\nCompression mode : Lossy \r\nDelay relative to video : -146 ms \r\nStream size : 22.6 MiB (21%) \r\n\r\n..::ScreenShots::.. \r\n <a href=\"\nhttps://www.imageupload.co.uk/images/2017/08/26/vlcsnap-2017-08-26-13h22m18s539.png\" rel=\"nofollow\" target=\"_NEW\">\nhttps://www.imageupload.co.uk/images/2017/08/26/vlcsnap-2017-08-26-13h22m18s539.png</a>  <a href=\"\nhttps://www.imageupload.co.uk/images/2017/08/26/vlcsnap-2017-08-26-13h21m30s712.png\" rel=\"nofollow\" target=\"_NEW\">\nhttps://www.imageupload.co.uk/images/2017/08/26/vlcsnap-2017-08-26-13h21m30s712.png</a>  <a href=\"\nhttps://www.imageupload.co.uk/images/2017/08/26/vlcsnap-2017-08-26-13h22m10s691.png\" rel=\"nofollow\" target=\"_NEW\">\nhttps://www.imageupload.co.uk/images/2017/08/26/vlcsnap-2017-08-26-13h22m10s691.png</a> \r\n\r\n================================================================ \r\nSeed Seed Seed Seed Seed Seed Seed Seed Seed Seed Seed Seed Seed \r\nTo direct download or Watch Online this file, Visit.  <a href=\"\nhttp://v.ht/1frn\" rel=\"nofollow\" target=\"_NEW\">\nhttp://v.ht/1frn</a> \r\nSeed Seed Seed Seed Seed Seed Seed Seed Seed Seed Seed Seed Seed \r\n================================================================","last_updated":"2017-08-26T12:02:14.888Z","parsed":{"xt":"urn:btih:229bafb0b43cb818108b5b03b358e4584e93f715","dn":"Tsuki ga Kirei Season 1 (EngDub) 720p x264 Download","tr":["udp://exodus.desync.com:6969","udp://open.demonii.com:1337","udp://tracker.coppersurfer.tk:6969","udp://tracker.leechers-paradise.org:6969","udp://zer0day.ch:1337"],"infoHash":"229bafb0b43cb818108b5b03b358e4584e93f715","infoHashBuffer":{"type":"Buffer","data":[34,155,175,176,180,60,184,24,16,139,91,3,179,88,228,88,78,147,247,21]},"name":"Tsuki ga Kirei Season 1 (EngDub) 720p x264 Download","announce":["udp://exodus.desync.com:6969","udp://open.demonii.com:1337","udp://tracker.coppersurfer.tk:6969","udp://tracker.leechers-paradise.org:6969","udp://zer0day.ch:1337"],"urlList":[]}}